<?xml version="1.0" encoding="UTF-8" standalone="no"?>
<!DOCTYPE svg PUBLIC "-//W3C//DTD SVG 1.1//EN" "http://www.w3.org/Graphics/SVG/1.1/DTD/svg11.dtd">
<svg width="100%" height="100%" viewBox="0 0 156 165" version="1.1" xmlns="http://www.w3.org/2000/svg" xmlns:xlink="http://www.w3.org/1999/xlink" xml:space="preserve" style="fill-rule:evenodd;clip-rule:evenodd;stroke-linejoin:round;stroke-miterlimit:1.41421;">
    <g id="Artboard1" transform="matrix(0.849658,0,0,0.88054,-492.837,-604.39)">
        <rect x="580.042" y="686.386" width="183.401" height="186.385" style="fill:none;"/>
        <g id="Layer-1" transform="matrix(1.17694,0,0,1.13567,-135.087,-118.406)">
            <path d="M713.695,774.127L717.705,784.568C718.945,787.795 716.912,791.328 713.506,791.919C703.866,793.592 694.803,796.924 689.644,800.63C683.642,804.943 681.111,810.025 684.203,814.328C694.202,828.244 727.685,793.973 748.467,815.413L748.988,719.471C748.996,717.947 746.922,717.489 746.281,718.872C733.638,746.193 727.018,757.151 713.606,774.132C713.635,774.13 713.665,774.128 713.695,774.127" style="fill:rgb(39,189,255);fill-rule:nonzero;"/>
            <path d="M761.085,864.539C760.714,864.454 760.605,864.344 760.242,864.204C760.328,864.246 760.415,864.288 760.5,864.33C761.168,864.661 756.325,864.221 756.344,864.186L613.428,864.186C611.741,864.186 610.373,865.554 610.373,867.241L610.373,867.302C610.373,868.99 611.741,870.357 613.428,870.357L761.085,870.357L761.085,864.539Z" style="fill:rgb(54,85,114);fill-rule:nonzero;"/>
            <path d="M761.085,868.9L761.085,715.697C761.085,714.01 759.717,712.642 758.03,712.642L757.734,712.642C756.047,712.642 754.68,714.01 754.68,715.697L754.68,869.344L761.085,868.9Z" style="fill:rgb(54,85,114);fill-rule:nonzero;"/>
            <path d="M731.118,835.055C730.868,834.427 730.533,833.81 730.102,833.21C719.36,818.26 686.464,857.867 666.283,829.78C664.699,827.576 663.497,825.288 662.66,822.947C644.694,836.938 628.22,847.554 618.744,853.353C616.441,854.762 617.443,858.309 620.143,858.309L699.271,858.309L699.271,858.29C709.883,857.729 717.256,853.945 723.775,849.261C726.065,847.616 727.877,845.912 729.187,844.199C729.187,844.199 733.061,839.233 731.118,835.055" style="fill:rgb(54,85,114);fill-rule:nonzero;"/>
        </g>
    </g>
</svg>
